<?xml version="1.0" encoding="utf-8"?>
<!-- Generator: Adobe Illustrator 19.1.0, SVG Export Plug-In . SVG Version: 6.00 Build 0)  -->
<svg version="1.1" id="Layer_1" xmlns="http://www.w3.org/2000/svg" xmlns:xlink="http://www.w3.org/1999/xlink" x="0px" y="0px"
	 viewBox="-39 41 20 20" style="enable-background:new -39 41 20 20;" xml:space="preserve">
<g>
	<g>
		<polygon points="-23.2,53.7 -23.2,47.4 -21.9,47.4 -21.9,53.7 		"/>
		<polygon points="-25.7,51.2 -25.7,49.9 -19.4,49.9 -19.4,51.2 		"/>
	</g>
	<path d="M-27.4,42.5h-1.5c0.6,0.5,1.7,1.4,1.7,3.3s-1.1,2.7-2.1,3.6c-0.3,0.3-0.7,0.7-0.7,1.2s0.4,0.8,0.7,1.1l0.9,0.7
		c1.1,0.9,2.1,1.8,2.1,3.5c0,2.4-2.4,4.7-6.8,4.7c-3.7,0-5.4-1.7-5.4-3.6c0-0.9,0.5-2.2,2-3.1c1.6-1,3.7-1.1,4.9-1.2
		c-0.4-0.5-0.8-0.9-0.8-1.7c0-0.4,0.1-0.7,0.3-1c-0.3,0-0.6,0-0.8,0c-2.7,0-4.2-2-4.2-3.9c0-1.2,0.4-2.5,1.4-3.4
		c1.4-1.2,3.3-1.3,4.7-1.3h5.3L-27.4,42.5L-27.4,42.5z M-34,53.9c-0.6,0.2-2.2,0.8-2.2,2.6c0,1.8,1.8,3.1,4.5,3.1
		c2.4,0,3.7-1.2,3.7-2.7c0-1.3-0.8-2-2.8-3.3c-0.2,0-0.3,0-0.6,0C-31.5,53.5-32.9,53.5-34,53.9L-34,53.9z M-32.7,42.4
		c-0.7,0-1.4,0.3-1.8,0.8c-0.4,0.5-0.6,1.3-0.6,1.9c0,1.7,1,4.5,3.2,4.5c0.6,0,1.3-0.4,1.7-0.8c0.6-0.6,0.6-1.3,0.6-1.8
		C-29.4,45.2-30.5,42.4-32.7,42.4L-32.7,42.4z"/>
</g>
</svg>
