<?xml version="1.0" encoding="utf-8"?>
<!-- Generator: Adobe Illustrator 19.1.0, SVG Export Plug-In . SVG Version: 6.00 Build 0)  -->
<svg version="1.1" id="Layer_1" xmlns="http://www.w3.org/2000/svg" xmlns:xlink="http://www.w3.org/1999/xlink" x="0px" y="0px"
	 viewBox="-826.8 241 20 20" style="enable-background:new -826.8 241 20 20;" xml:space="preserve">
<style type="text/css">
	.st0{fill:#FFFFFF;}
</style>
<g>
	<path d="M-807,246.7c0,0-0.2-1.5-0.8-2.1c-0.8-0.8-1.6-0.9-2-0.9c-2.8-0.2-7-0.2-7-0.2h0c0,0-4.2,0-7,0.2c-0.4,0-1.2,0.1-2,0.9
		c-0.6,0.6-0.8,2.1-0.8,2.1s-0.2,1.7-0.2,3.5v1.6c0,1.7,0.2,3.5,0.2,3.5s0.2,1.5,0.8,2.1c0.8,0.8,1.8,0.8,2.2,0.9
		c1.6,0.2,6.8,0.2,6.8,0.2s4.2,0,7-0.2c0.4-0.1,1.2-0.1,2-0.9c0.6-0.6,0.8-2.1,0.8-2.1s0.2-1.7,0.2-3.5v-1.6
		C-806.8,248.5-807,246.7-807,246.7z"/>
	<polygon class="st0" points="-819.2,247.2 -819.2,254.8 -813,251 	"/>
</g>
</svg>
